# xmcd CD database file
#
# Track frame offsets:
#	150
#	43338
#	49108
#	92731
#
# Disc length: 2495 seconds
#
# Revision: 0
# Processed by: cddbd v1.5.1PL2 Copyright (c) Steve Scherf et al.
# Submitted via: CDex 1.51
#
DISCID=3009bd04
DTITLE=Herbie Hancock - Live Detroit/Chicago
DYEAR=1900
DGENRE=Jazz
TTITLE0=Hornets
TTITLE1=Interlude
TTITLE2=Hornets2
TTITLE3=Gibraltor
EXTD=
EXTT0=
EXTT1=
EXTT2=
EXTT3=
PLAYORDER=
